
        <svg xmlns="http://www.w3.org/2000/svg" xmlns:xlink="http://www.w3.org/1999/xlink" version="1.1" width="3292.682926829268" 
        height="756.7331679734627" viewBox="0 0 3292.682926829268 756.7331679734627">
			
			<g transform="scale(14.634146341463415) translate(10, 10)">
				<defs id="SvgjsDefs3742"></defs><g id="SvgjsG3743" featureKey="2ou6gm-0" transform="matrix(14.179941183073018,0,0,14.179941183073018,-2.9494278269328933,-19.094194514865418)" fill="#ffe719"><g xmlns="http://www.w3.org/2000/svg"><path fill="#ffe719" d="M4.779,2.865C4.535,2.649,4.336,2.414,4.158,2.142C4.018,1.931,3.92,1.778,3.676,1.691   C3.531,1.638,3.451,1.34,3.312,1.436C3.105,1.567,2.469,2.113,2.436,2.117c-0.008,0-0.012,0-0.016,0   C2.275,2.08,2.142,2.021,1.989,2.088C1.895,2.133,1.812,2.199,1.738,2.273C1.609,2.39,1.444,2.447,1.271,2.447   c-0.223,0.005-0.397,0.19-0.534,0.344c-0.099,0.115-0.207,0.223-0.314,0.33C0.3,3.241,0.279,3.319,0.208,3.473   c0,0.008,0.008,0.012,0.013,0.008C0.3,3.41,0.411,3.369,0.494,3.298c0.013-0.012,0.029-0.023,0.041-0.037   c0.125-0.027,0.244-0.065,0.364-0.119c0.132-0.062,0.21-0.21,0.347-0.253C1.395,2.844,1.506,2.861,1.634,2.77   c0.004,0,0.008,0,0.008,0c0.049,0.004,0.045,0.189,0.041,0.194C1.671,3.047,1.572,3.117,1.515,3.167   C1.419,3.253,1.828,3.204,2.019,3.055c0.033-0.029,0.058-0.066,0.074-0.104l0,0c0.1-0.062,0.182-0.141,0.256-0.219   c0.206-0.074,0.413-0.19,0.575-0.318C3.109,2.266,3.307,2.01,3.391,1.782C3.428,1.79,3.473,1.808,3.518,1.835   C3.754,1.972,3.92,2.188,4.088,2.39C4.275,2.608,4.49,2.773,4.725,2.936C4.766,2.964,4.816,2.898,4.779,2.865z"></path><path fill="#ffe719" d="M3.668,2.397c0.041-0.069-0.047-0.161-0.121-0.111C3.295,2.464,3.098,2.604,2.94,2.881   C2.8,3.134,2.506,3.278,2.333,3.518C2.3,3.562,2.37,3.604,2.408,3.571C2.584,3.414,2.791,3.29,2.994,3.167   c0.008,0.008,0.021,0.02,0.037,0.024c0.008,0-0.045,0.099-0.05,0.106c-0.004,0.01-0.008,0.021-0.013,0.029   C2.94,3.36,2.911,3.397,2.887,3.439C2.857,3.48,2.911,3.521,2.948,3.501c0.038-0.017,0.546-0.306,0.565-0.367   C3.543,3.129,3.539,2.621,3.668,2.397z"></path></g></g><g id="SvgjsG3744" featureKey="kZnDdN-0" transform="matrix(2.4610337188425633,0,0,2.4610337188425633,82.53896628115744,-17.52255979651609)" fill="#ffe719"><path d="M1.26 20 c-0.14 0 -0.26 -0.12 -0.26 -0.26 l0 -11.98 c0 -0.14 0.12 -0.26 0.26 -0.26 l4.78 0 c1.32 0 2.2 0.28 2.98 0.86 c1.08 0.78 1.52 2.26 1.02 3.52 c-0.26 0.64 -0.7 0.98 -1.3 1.3 c0.86 0.12 1.4 0.68 1.72 1.08 c0.46 0.6 0.7 1.32 0.7 2.16 c0 1.1 -0.44 2 -1.28 2.64 c-0.82 0.62 -1.94 0.94 -3.32 0.94 l-5.3 0 z M3.94 12.08 l1.96 0 c0.4 0 0.72 -0.08 0.94 -0.26 c0.2 -0.18 0.3 -0.42 0.3 -0.74 c0 -0.3 -0.1 -0.54 -0.3 -0.7 c-0.2 -0.18 -0.5 -0.26 -0.86 -0.26 l-2.04 0 l0 1.96 z M3.94 17.54 l2.34 0 c0.6 0 1.06 -0.12 1.4 -0.36 c0.3 -0.22 0.46 -0.52 0.46 -0.94 c0 -0.38 -0.16 -0.66 -0.46 -0.88 c-0.32 -0.22 -0.76 -0.34 -1.32 -0.34 l-2.42 0 l0 2.52 z M19.6 20 c-1.2 0 -2.3 -0.28 -3.26 -0.84 c-0.98 -0.56 -1.76 -1.36 -2.34 -2.32 c-0.56 -0.98 -0.84 -2.1 -0.84 -3.3 c0 -1.18 0.28 -2.28 0.84 -3.26 c0.58 -0.98 1.34 -1.76 2.32 -2.32 s2.08 -0.84 3.28 -0.84 c1.18 0 2.28 0.28 3.26 0.84 s1.76 1.34 2.32 2.32 c0.58 0.98 0.86 2.08 0.86 3.26 c0 1.2 -0.28 2.3 -0.86 3.28 c-0.56 0.98 -1.34 1.76 -2.32 2.34 c-0.98 0.56 -2.08 0.84 -3.26 0.84 z M19.64 17.12 c0.58 0 1.12 -0.16 1.6 -0.46 c0.5 -0.32 0.9 -0.74 1.18 -1.3 c0.3 -0.54 0.44 -1.16 0.44 -1.82 c0 -0.64 -0.14 -1.26 -0.44 -1.8 c-0.28 -0.54 -0.68 -0.96 -1.18 -1.28 c-0.48 -0.3 -1.02 -0.46 -1.6 -0.46 c-0.6 0 -1.14 0.16 -1.64 0.46 c-0.52 0.32 -0.92 0.74 -1.22 1.28 c-0.3 0.56 -0.44 1.16 -0.44 1.8 c0 0.66 0.14 1.28 0.44 1.82 c0.32 0.54 0.72 0.98 1.22 1.28 c0.5 0.32 1.04 0.48 1.64 0.48 z M28.7 20 c-0.16 0 -0.26 -0.12 -0.26 -0.26 l0 -11.98 c0 -0.14 0.1 -0.26 0.26 -0.26 l4.88 0 c1.52 0 2.72 0.38 3.56 1.16 c1.24 1.12 1.66 3.24 1.06 4.8 c-0.22 0.56 -0.6 1.08 -1.08 1.46 c-0.28 0.22 -0.58 0.38 -0.88 0.54 c0.86 1.36 2.16 4.12 2.16 4.12 c0.02 0.04 0.06 0.1 0.06 0.16 c0 0.14 -0.12 0.26 -0.26 0.26 l-2.96 0 c-0.08 0 -0.18 -0.06 -0.22 -0.14 l-1.74 -3.82 c-0.62 0.04 -1.1 0.02 -1.74 0.02 l0 3.68 c0 0.14 -0.12 0.26 -0.26 0.26 l-2.58 0 z M31.54 13.280000000000001 c0 0 2.52 0.28 3.4 -0.3 c0.34 -0.22 0.54 -0.76 0.54 -1.16 c-0.02 -0.44 -0.24 -0.9 -0.6 -1.18 c-0.38 -0.32 -1.32 -0.42 -1.8 -0.42 l-1.54 0.04 l0 3.02 z M40.48 20 l0 -11.98 c0 -0.5 0.1 -0.6 0.26 -0.6 l8.76 0 c0.14 0 0.26 0.1 0.26 0.24 l0 2.26 c0 0.14 -0.12 0.26 -0.26 0.26 l-5.92 0 l0 2.08 l3.74 0 c0.14 0 0.26 0.12 0.26 0.26 l0 2.24 c0 0.14 -0.12 0.26 -0.26 0.26 l-3.74 0 l0 2.14 l5.9 0 c0.14 0 0.26 0.12 0.26 0.26 l0 2.24 c0 0.14 -0.12 0.26 -0.26 0.26 l-8.74 0 c-0.16 0 -0.26 -0.12 -0.26 0.08 z"></path></g>
			</g>
		</svg>
	