<svg xmlns="http://www.w3.org/2000/svg" version="1.1" xmlns:xlink="http://www.w3.org/1999/xlink" xmlns:svgjs="http://svgjs.dev/svgjs" width="1000" height="171" viewBox="0 0 1000 171"><g transform="matrix(1,0,0,1,-0.6060606060606801,0.14640086692627108)"><svg viewBox="0 0 396 68" data-background-color="#ffffff" preserveAspectRatio="xMidYMid meet" height="171" width="1000" xmlns="http://www.w3.org/2000/svg" xmlns:xlink="http://www.w3.org/1999/xlink"><defs></defs><g id="tight-bounds" transform="matrix(1,0,0,1,0.24000000000003752,-0.05821788860225752)"><svg viewBox="0 0 395.5199999999999 68.11643423389712" height="68.11643423389712" width="395.5199999999999"><g><svg viewBox="0 0 536.527618552357 92.40075911152678" height="68.11643423389712" width="395.5199999999999"><g><rect width="6.029519402504261" height="67.19447388356323" x="411.3040822055085" y="12.603142613981774" fill="#ffe000" opacity="1" stroke-width="0" stroke="transparent" fill-opacity="1" class="rect-o-0" data-fill-palette-color="primary" rx="1%" id="o-0" data-palette-color="#ffe000"></rect></g><g transform="matrix(1,0,0,1,0,12.770293046527947)"><svg viewBox="0 0 395.52 66.86017301847089" height="66.86017301847089" width="395.52"><g><svg viewBox="0 0 395.52 66.86017301847089" height="66.86017301847089" width="395.52"><g><svg viewBox="0 0 395.52 66.86017301847089" height="66.86017301847089" width="395.52"><g transform="matrix(1,0,0,1,0,0)"><svg width="395.52" viewBox="3.799999952316284 -35.70000076293945 214.3300018310547 36.150001525878906" height="66.86017301847089" data-palette-color="#ffe000"><g class="undefined-text-0" data-fill-palette-color="primary" id="text-0"><path d="M25.5-18.2Q28.55-17.35 30.23-15.1 31.9-12.85 31.9-9.6L31.9-9.6Q31.9-5.1 28.68-2.55 25.45 0 19.8 0L19.8 0 3.8 0 3.8-35.25 19.3-35.25Q24.8-35.25 27.93-32.83 31.05-30.4 31.05-26.05L31.05-26.05Q31.05-23.25 29.58-21.2 28.1-19.15 25.5-18.2L25.5-18.2ZM10.1-30.25L10.1-20.4 18.25-20.4Q24.9-20.4 24.9-25.35L24.9-25.35Q24.9-27.85 23.25-29.05 21.6-30.25 18.25-30.25L18.25-30.25 10.1-30.25ZM19.1-5Q22.6-5 24.2-6.25 25.8-7.5 25.8-10.15L25.8-10.15Q25.8-12.8 24.18-14.1 22.55-15.4 19.1-15.4L19.1-15.4 10.1-15.4 10.1-5 19.1-5ZM48.55 0.4Q44.8 0.4 41.97-1.15 39.15-2.7 37.6-5.6 36.05-8.5 36.05-12.35L36.05-12.35Q36.05-16.2 37.6-19.07 39.15-21.95 41.97-23.5 44.8-25.05 48.55-25.05L48.55-25.05Q52.3-25.05 55.12-23.5 57.95-21.95 59.47-19.07 61-16.2 61-12.35L61-12.35Q61-8.5 59.47-5.6 57.95-2.7 55.12-1.15 52.3 0.4 48.55 0.4L48.55 0.4ZM48.5-4.45Q51.55-4.45 53.15-6.45 54.75-8.45 54.75-12.35L54.75-12.35Q54.75-16.2 53.15-18.23 51.55-20.25 48.55-20.25L48.55-20.25Q45.55-20.25 43.92-18.23 42.3-16.2 42.3-12.35L42.3-12.35Q42.3-8.45 43.9-6.45 45.5-4.45 48.5-4.45L48.5-4.45ZM81.84-25.1L82.25-19.85 78.59-19.5Q72.4-18.85 72.4-13.2L72.4-13.2 72.4 0 66.15 0 66.15-24.45 72.09-24.45 72.09-20.15Q74-24.55 79.95-24.95L79.95-24.95 81.84-25.1ZM106.74-12.85L106.74-11.1 90.09-11.1Q90.39-7.7 92.14-6.05 93.89-4.4 97.14-4.4L97.14-4.4Q101.19-4.4 104.54-7L104.54-7 106.34-2.7Q104.64-1.3 102.07-0.45 99.49 0.4 96.89 0.4L96.89 0.4Q90.89 0.4 87.42-3 83.94-6.4 83.94-12.3L83.94-12.3Q83.94-16.05 85.44-18.95 86.94-21.85 89.67-23.45 92.39-25.05 95.84-25.05L95.84-25.05Q100.89-25.05 103.82-21.8 106.74-18.55 106.74-12.85L106.74-12.85ZM95.99-20.65Q93.49-20.65 91.97-19.05 90.44-17.45 90.09-14.45L90.09-14.45 101.39-14.45Q101.29-17.5 99.89-19.07 98.49-20.65 95.99-20.65L95.99-20.65ZM128.44-19.05L141.79-19.05 141.79-2.15Q139.39-0.95 135.97-0.25 132.54 0.45 128.99 0.45L128.99 0.45Q123.54 0.45 119.54-1.73 115.54-3.9 113.42-7.98 111.29-12.05 111.29-17.65L111.29-17.65Q111.29-23.2 113.42-27.28 115.54-31.35 119.47-33.52 123.39-35.7 128.69-35.7L128.69-35.7Q132.39-35.7 135.64-34.63 138.89-33.55 141.04-31.55L141.04-31.55 138.89-26.9Q136.44-28.8 134.06-29.63 131.69-30.45 128.84-30.45L128.84-30.45Q123.39-30.45 120.62-27.23 117.84-24 117.84-17.65L117.84-17.65Q117.84-4.65 129.24-4.65L129.24-4.65Q132.64-4.65 136.04-5.6L136.04-5.6 136.04-14.45 128.44-14.45 128.44-19.05ZM169.94-12.85L169.94-11.1 153.29-11.1Q153.59-7.7 155.34-6.05 157.09-4.4 160.34-4.4L160.34-4.4Q164.39-4.4 167.74-7L167.74-7 169.54-2.7Q167.84-1.3 165.26-0.45 162.69 0.4 160.09 0.4L160.09 0.4Q154.09 0.4 150.61-3 147.14-6.4 147.14-12.3L147.14-12.3Q147.14-16.05 148.64-18.95 150.14-21.85 152.86-23.45 155.59-25.05 159.04-25.05L159.04-25.05Q164.09-25.05 167.01-21.8 169.94-18.55 169.94-12.85L169.94-12.85ZM159.19-20.65Q156.69-20.65 155.16-19.05 153.64-17.45 153.29-14.45L153.29-14.45 164.59-14.45Q164.49-17.5 163.09-19.07 161.69-20.65 159.19-20.65L159.19-20.65ZM185.54-25.05Q190.69-25.05 193.19-22.55 195.69-20.05 195.69-14.85L195.69-14.85 195.69 0 189.74 0 189.74-3.75Q188.89-1.8 187.06-0.7 185.24 0.4 182.84 0.4L182.84 0.4Q180.39 0.4 178.39-0.6 176.39-1.6 175.24-3.35 174.09-5.1 174.09-7.25L174.09-7.25Q174.09-9.95 175.46-11.5 176.84-13.05 179.94-13.75 183.04-14.45 188.49-14.45L188.49-14.45 189.74-14.45 189.74-15.6Q189.74-18.1 188.66-19.2 187.59-20.3 185.09-20.3L185.09-20.3Q183.14-20.3 181.01-19.63 178.89-18.95 176.84-17.75L176.84-17.75 175.09-22.05Q177.14-23.35 180.04-24.2 182.94-25.05 185.54-25.05L185.54-25.05ZM184.09-4.1Q186.59-4.1 188.16-5.78 189.74-7.45 189.74-10.1L189.74-10.1 189.74-11.15 188.84-11.15Q185.49-11.15 183.64-10.85 181.79-10.55 180.99-9.8 180.19-9.05 180.19-7.75L180.19-7.75Q180.19-6.15 181.29-5.13 182.39-4.1 184.09-4.1L184.09-4.1ZM217.73-25.1L218.13-19.85 214.48-19.5Q208.28-18.85 208.28-13.2L208.28-13.2 208.28 0 202.03 0 202.03-24.45 207.98-24.45 207.98-20.15Q209.88-24.55 215.83-24.95L215.83-24.95 217.73-25.1Z" fill="#ffe000" data-fill-palette-color="primary"></path></g></svg></g></svg></g></svg></g></svg></g><g transform="matrix(1,0,0,1,433.1176838135213,0)"><svg viewBox="0 0 103.40993473883574 92.40075911152678" height="92.40075911152678" width="103.40993473883574"><g><svg xmlns="http://www.w3.org/2000/svg" xmlns:xlink="http://www.w3.org/1999/xlink" version="1.1" x="0" y="0" viewBox="2.7858214378356934 5.815999984741211 94.21417999267578 84.18399810791016" enable-background="new 0 0 100 100" xml:space="preserve" height="92.40075911152678" width="103.40993473883574" class="icon-icon-0" data-fill-palette-color="accent" id="icon-0"><circle fill="#ffe000" cx="25.619" cy="49.81" r="4.2" data-fill-palette-color="accent"></circle><path fill="#ffe000" d="M10.707 68.467c-0.323 0.559-0.131 1.274 0.428 1.599l5.474 3.16c0.56 0.323 1.276 0.131 1.599-0.429l8.778-15.204c0.323-0.561 0.131-1.276-0.429-1.6l-5.474-3.16c-0.56-0.323-1.276-0.132-1.598 0.429L10.707 68.467z" data-fill-palette-color="accent"></path><path fill="#ffe000" d="M27 65.269C27 66.225 26.414 67 25.691 67h-1.383C23.586 67 23 66.225 23 65.269v-6.537C23 57.775 23.586 57 24.309 57h1.383C26.414 57 27 57.775 27 58.731V65.269z" data-fill-palette-color="accent"></path><path fill="#ffe000" d="M25.233 67.454c-1.026-0.009-1.854-0.602-1.848-1.323l0.017-2.095c0.005-0.723 0.842-1.302 1.868-1.294l7.804 0.062c1.026 0.009 1.853 0.601 1.847 1.324l-0.017 2.094c-0.006 0.723-0.842 1.303-1.868 1.294L25.233 67.454z" data-fill-palette-color="accent"></path><path fill="#ffe000" d="M7.042 86.273c-0.361 0.628-1.162 0.842-1.788 0.48l-1.814-1.047c-0.625-0.362-0.84-1.162-0.479-1.789l8.247-14.284c0.361-0.626 1.162-0.841 1.788-0.479l1.814 1.047c0.626 0.36 0.84 1.162 0.479 1.788L7.042 86.273z" data-fill-palette-color="accent"></path><path fill="#ffe000" d="M23.928 78.286c0.348 0.349 1.044 0.216 1.556-0.296l1.481-1.48c0.511-0.511 0.644-1.208 0.296-1.556l-7.936-7.936c-0.347-0.348-1.043-0.215-1.555 0.296l-1.481 1.48c-0.511 0.512-0.644 1.208-0.296 1.557L23.928 78.286z" data-fill-palette-color="accent"></path><path fill="#ffe000" d="M28.407 85.792c0.059 0.678-0.446 1.275-1.128 1.335l-2.224 0.195c-0.683 0.059-1.284-0.441-1.343-1.12l-0.88-10.063c-0.06-0.679 0.446-1.276 1.128-1.336l2.224-0.194c0.682-0.06 1.284 0.441 1.342 1.119L28.407 85.792z" data-fill-palette-color="accent"></path><path fill="#ffe000" d="M5.366 58.619c-0.361 0.626-0.147 1.427 0.479 1.788l4.988 2.88c0.625 0.361 1.426 0.147 1.788-0.479l6.545-11.337c0.361-0.626 0.147-1.427-0.479-1.788L13.7 46.803c-0.625-0.36-1.427-0.146-1.789 0.48L5.366 58.619z" data-fill-palette-color="accent"></path><polygon fill="#ffe000" points="25.106,89.078 43.541,46.064 59.824,43.914 63.817,19.028 67.813,26.094 68.733,5.816   85.018,43.914 87.168,32.854 97,90 " data-fill-palette-color="accent"></polygon></svg></g></svg></g></svg></g></svg><rect width="395.5199999999999" height="68.11643423389712" fill="none" stroke="none" visibility="hidden"></rect></g></svg></g></svg>